<svg width="188" height="42" viewBox="0 0 188 42" fill="none" xmlns="http://www.w3.org/2000/svg">
<path d="M179.746 41.0256V11.9952H186.435V41.0256H179.746ZM183.109 7.87497C182.05 7.87497 181.138 7.51587 180.374 6.79767C179.61 6.06687 179.229 5.19117 179.229 4.17057C179.229 3.13737 179.61 2.26167 180.374 1.54347C181.138 0.812666 182.05 0.447266 183.109 0.447266C184.181 0.447266 185.092 0.812666 185.844 1.54347C186.608 2.26167 186.99 3.13737 186.99 4.17057C186.99 5.19117 186.608 6.06687 185.844 6.79767C185.092 7.51587 184.181 7.87497 183.109 7.87497Z" fill="#272420"/>
<path d="M160.07 41.6115C158.272 41.6115 156.652 41.2839 155.21 40.6287C153.781 39.9609 152.648 38.9781 151.81 37.6803C150.985 36.3825 150.572 34.7823 150.572 32.8797C150.572 31.2417 150.868 29.8872 151.459 28.8162C152.051 27.7452 152.857 26.8884 153.88 26.2458C154.902 25.6032 156.054 25.1181 157.335 24.7905C158.629 24.4503 159.966 24.2046 161.345 24.0534C163.008 23.877 164.357 23.7195 165.392 23.5809C166.427 23.4297 167.178 23.2029 167.647 22.9005C168.127 22.5855 168.367 22.1004 168.367 21.4452V21.3318C168.367 19.908 167.955 18.8055 167.129 18.0243C166.304 17.2431 165.115 16.8525 163.563 16.8525C161.924 16.8525 160.625 17.2179 159.664 17.9487C158.715 18.6795 158.075 19.5426 157.742 20.538L151.496 19.6308C151.989 17.8668 152.802 16.3926 153.935 15.2082C155.069 14.0112 156.455 13.1166 158.093 12.5244C159.732 11.9196 161.542 11.6172 163.526 11.6172C164.893 11.6172 166.254 11.781 167.61 12.1086C168.965 12.4362 170.203 12.978 171.324 13.734C172.445 14.4774 173.344 15.4917 174.022 16.7769C174.712 18.0621 175.056 19.6686 175.056 21.5964V41.0256H168.626V37.0377H168.404C167.998 37.8441 167.425 38.6001 166.686 39.3057C165.959 39.9987 165.041 40.5594 163.932 40.9878C162.836 41.4036 161.549 41.6115 160.07 41.6115ZM161.807 36.5841C163.15 36.5841 164.314 36.3132 165.3 35.7714C166.285 35.217 167.043 34.4862 167.573 33.579C168.115 32.6718 168.386 31.6827 168.386 30.6117V27.1908C168.176 27.3672 167.819 27.531 167.314 27.6822C166.821 27.8334 166.267 27.9657 165.651 28.0791C165.035 28.1925 164.425 28.2933 163.821 28.3815C163.218 28.4697 162.694 28.5453 162.251 28.6083C161.253 28.7469 160.36 28.9737 159.571 29.2887C158.783 29.6037 158.161 30.0447 157.705 30.6117C157.249 31.1661 157.021 31.8843 157.021 32.7663C157.021 34.0263 157.471 34.9776 158.37 35.6202C159.27 36.2628 160.415 36.5841 161.807 36.5841Z" fill="#272420"/>
<path d="M144.054 41.4791C142.933 41.4791 141.972 41.0741 141.171 40.264C140.37 39.4539 139.976 38.4666 139.989 37.3021C139.976 36.1629 140.37 35.1883 141.171 34.3782C141.972 33.5681 142.933 33.1631 144.054 33.1631C145.138 33.1631 146.08 33.5681 146.881 34.3782C147.694 35.1883 148.107 36.1629 148.119 37.3021C148.107 38.0742 147.909 38.7767 147.528 39.4096C147.158 40.0425 146.665 40.5488 146.049 40.9285C145.446 41.2956 144.781 41.4791 144.054 41.4791Z" fill="#272420"/>
<path d="M131.906 2.31836H138.761V27.6066C138.761 30.3786 138.121 32.8167 136.84 34.9209C135.571 37.0251 133.784 38.6694 131.481 39.8538C129.177 41.0256 126.485 41.6115 123.406 41.6115C120.313 41.6115 117.616 41.0256 115.312 39.8538C113.008 38.6694 111.222 37.0251 109.953 34.9209C108.684 32.8167 108.05 30.3786 108.05 27.6066V2.31836H114.905V27.0207C114.905 28.6335 115.25 30.0699 115.94 31.3299C116.642 32.5899 117.628 33.579 118.897 34.2972C120.166 35.0028 121.669 35.3556 123.406 35.3556C125.143 35.3556 126.645 35.0028 127.914 34.2972C129.196 33.579 130.181 32.5899 130.871 31.3299C131.561 30.0699 131.906 28.6335 131.906 27.0207V2.31836Z" fill="#272420"/>
<path d="M91.5126 41.5926C88.6669 41.5926 86.2092 40.9878 84.1396 39.7782C82.0823 38.556 80.4993 36.8298 79.3906 34.5996C78.2819 32.3568 77.7275 29.7171 77.7275 26.6805C77.7275 23.6943 78.2819 21.0735 79.3906 18.8181C80.5117 16.5501 82.0762 14.7861 84.0842 13.5261C86.0922 12.2535 88.4513 11.6172 91.1615 11.6172C92.9108 11.6172 94.5616 11.907 96.1138 12.4866C97.6783 13.0536 99.058 13.9356 100.253 15.1326C101.46 16.3296 102.409 17.8542 103.099 19.7064C103.789 21.546 104.134 23.7384 104.134 26.2836V28.3815H80.8689V23.7699H97.7214C97.7091 22.4595 97.4319 21.294 96.8899 20.2734C96.3478 19.2402 95.5902 18.4275 94.617 17.8353C93.6561 17.2431 92.5351 16.947 91.2539 16.947C89.8865 16.947 88.6854 17.2872 87.6506 17.9676C86.6158 18.6354 85.8089 19.5174 85.2299 20.6136C84.6632 21.6972 84.3737 22.8879 84.3614 24.1857V28.2114C84.3614 29.8998 84.6632 31.3488 85.2668 32.5584C85.8705 33.7554 86.7143 34.6752 87.7984 35.3178C88.8825 35.9478 90.1513 36.2628 91.605 36.2628C92.5782 36.2628 93.459 36.1242 94.2474 35.847C95.0359 35.5572 95.7196 35.1351 96.2986 34.5807C96.8776 34.0263 97.3149 33.3396 97.6106 32.5206L103.856 33.2388C103.462 34.9272 102.711 36.4014 101.602 37.6614C100.506 38.9088 99.1012 39.879 97.3888 40.572C95.6764 41.2524 93.7177 41.5926 91.5126 41.5926Z" fill="#272420"/>
<path d="M67.4158 28.8161V11.9951H74.105V41.0255H67.619V35.8658H67.3234C66.6828 37.4912 65.6295 38.8205 64.1635 39.8537C62.7099 40.8869 60.9175 41.4035 58.7863 41.4035C56.9261 41.4035 55.2815 40.9814 53.8525 40.1372C52.4358 39.2804 51.327 38.0393 50.5263 36.4139C49.7256 34.7759 49.3252 32.7977 49.3252 30.4793V11.9951H56.0145V29.4209C56.0145 31.2605 56.5072 32.7221 57.4927 33.8057C58.4783 34.8893 59.7718 35.4311 61.3733 35.4311C62.3588 35.4311 63.3135 35.1854 64.2374 34.694C65.1614 34.2026 65.919 33.4718 66.5103 32.5016C67.114 31.5188 67.4158 30.2903 67.4158 28.8161Z" fill="#272420"/>
<path d="M29.3672 41.0258V11.9954H35.8532V16.8338H36.1488C36.6662 15.158 37.5532 13.8665 38.8098 12.9593C40.0786 12.0395 41.5261 11.5796 43.1522 11.5796C43.5218 11.5796 43.9345 11.5985 44.3903 11.6363C44.8584 11.6615 45.2465 11.7056 45.5545 11.7686V18.0623C45.2711 17.9615 44.8215 17.8733 44.2055 17.7977C43.6019 17.7095 43.0167 17.6654 42.4501 17.6654C41.2305 17.6654 40.1341 17.9363 39.1609 18.4781C38.2 19.0073 37.4424 19.7444 36.888 20.6894C36.3336 21.6344 36.0565 22.7243 36.0565 23.9591V41.0258H29.3672Z" fill="#272420"/>
<path d="M0 8.19627V2.31836H30.1941V8.19627H18.4971V41.0256H11.697V8.19627H0Z" fill="#272420"/>
</svg>
